{
    "asset" : {
        "generator" : "Khronos glTF Blender I/O v1.6.16",
        "version" : "2.0"
    },
    "scene" : 0,
    "scenes" : [
        {
            "name" : "Scene",
            "nodes" : [
                0
            ]
        }
    ],
    "nodes" : [
        {
            "mesh" : 0,
            "name" : "Floor"
        }
    ],
    "materials" : [
        {
            "doubleSided" : true,
            "name" : "beacon",
            "pbrMetallicRoughness" : {
                "metallicFactor" : 0
            }
        }
    ],
    "meshes" : [
        {
            "name" : "BOS-CEB1L-8XN3H-R71L5.002",
            "primitives" : [
                {
                    "attributes" : {
                        "POSITION" : 0,
                        "NORMAL" : 1,
                        "TEXCOORD_0" : 2
                    },
                    "indices" : 3,
                    "material" : 0
                }
            ]
        }
    ],
    "accessors" : [
        {
            "bufferView" : 0,
            "componentType" : 5126,
            "count" : 900,
            "max" : [
                36.63508224487305,
                8,
                28.53129768371582
            ],
            "min" : [
                -36.635677337646484,
                -1.8452070662533515e-06,
                -28.53129768371582
            ],
            "type" : "VEC3"
        },
        {
            "bufferView" : 1,
            "componentType" : 5126,
            "count" : 900,
            "type" : "VEC3"
        },
        {
            "bufferView" : 2,
            "componentType" : 5126,
            "count" : 900,
            "type" : "VEC2"
        },
        {
            "bufferView" : 3,
            "componentType" : 5123,
            "count" : 1422,
            "type" : "SCALAR"
        }
    ],
    "bufferViews" : [
        {
            "buffer" : 0,
            "byteLength" : 10800,
            "byteOffset" : 0
        },
        {
            "buffer" : 0,
            "byteLength" : 10800,
            "byteOffset" : 10800
        },
        {
            "buffer" : 0,
            "byteLength" : 7200,
            "byteOffset" : 21600
        },
        {
            "buffer" : 0,
            "byteLength" : 2844,
            "byteOffset" : 28800
        }
    ],
    "buffers" : [
        {
            "byteLength" : 31644,
            "uri" : "data:application/octet-stream;base64,"
        }
    ]
}
