{
    "asset" : {
        "generator" : "Khronos glTF Blender I/O v1.6.16",
        "version" : "2.0"
    },
    "scene" : 0,
    "scenes" : [
        {
            "name" : "Scene",
            "nodes" : [
                0
            ]
        }
    ],
    "nodes" : [
        {
            "mesh" : 0,
            "name" : "Floor"
        }
    ],
    "materials" : [
        {
            "doubleSided" : true,
            "name" : "noname25925.001",
            "pbrMetallicRoughness" : {
                "metallicFactor" : 0
            }
        }
    ],
    "meshes" : [
        {
            "name" : "BOS-CEB1L-8XN3H-R71L5.001",
            "primitives" : [
                {
                    "attributes" : {
                        "POSITION" : 0,
                        "NORMAL" : 1
                    },
                    "indices" : 2,
                    "material" : 0
                }
            ]
        }
    ],
    "accessors" : [
        {
            "bufferView" : 0,
            "componentType" : 5126,
            "count" : 73688,
            "max" : [
                36.73159408569336,
                147.9010009765625,
                28.877195358276367
            ],
            "min" : [
                -36.63508224487305,
                0,
                -28.531293869018555
            ],
            "type" : "VEC3"
        },
        {
            "bufferView" : 1,
            "componentType" : 5126,
            "count" : 73688,
            "type" : "VEC3"
        },
        {
            "bufferView" : 2,
            "componentType" : 5125,
            "count" : 114282,
            "type" : "SCALAR"
        }
    ],
    "bufferViews" : [
        {
            "buffer" : 0,
            "byteLength" : 884256,
            "byteOffset" : 0
        },
        {
            "buffer" : 0,
            "byteLength" : 884256,
            "byteOffset" : 884256
        },
        {
            "buffer" : 0,
            "byteLength" : 457128,
            "byteOffset" : 1768512
        }
    ],
    "buffers" : [
        {
            "byteLength" : 2225640,
            "uri" : "data:application/octet-stream;base64,"
        }
    ]
}
