{
    "asset" : {
        "generator" : "Khronos glTF Blender I/O v1.6.16",
        "version" : "2.0"
    },
    "scene" : 0,
    "scenes" : [
        {
            "name" : "Scene",
            "nodes" : [
                0
            ]
        }
    ],
    "nodes" : [
        {
            "mesh" : 0,
            "name" : "Floor"
        }
    ],
    "materials" : [
        {
            "doubleSided" : true,
            "name" : "noname1150",
            "pbrMetallicRoughness" : {
                "metallicFactor" : 0
            }
        }
    ],
    "meshes" : [
        {
            "name" : "BOS-MMTLX-GIJXK-4E2RN.003",
            "primitives" : [
                {
                    "attributes" : {
                        "POSITION" : 0,
                        "NORMAL" : 1
                    },
                    "indices" : 2,
                    "material" : 0
                }
            ]
        }
    ],
    "accessors" : [
        {
            "bufferView" : 0,
            "componentType" : 5126,
            "count" : 2562,
            "max" : [
                18.035823822021484,
                6.8033647537231445,
                12.530304908752441
            ],
            "min" : [
                -15.62774658203125,
                2.325469949937542e-06,
                -18.378734588623047
            ],
            "type" : "VEC3"
        },
        {
            "bufferView" : 1,
            "componentType" : 5126,
            "count" : 2562,
            "type" : "VEC3"
        },
        {
            "bufferView" : 2,
            "componentType" : 5123,
            "count" : 3855,
            "type" : "SCALAR"
        }
    ],
    "bufferViews" : [
        {
            "buffer" : 0,
            "byteLength" : 30744,
            "byteOffset" : 0
        },
        {
            "buffer" : 0,
            "byteLength" : 30744,
            "byteOffset" : 30744
        },
        {
            "buffer" : 0,
            "byteLength" : 7710,
            "byteOffset" : 61488
        }
    ],
    "buffers" : [
        {
            "byteLength" : 69200,
            "uri" : "data:application/octet-stream;base64,"
        }
    ]
}
