{
    "asset" : {
        "generator" : "Khronos glTF Blender I/O v1.6.16",
        "version" : "2.0"
    },
    "scene" : 0,
    "scenes" : [
        {
            "name" : "Scene",
            "nodes" : [
                0
            ]
        }
    ],
    "nodes" : [
        {
            "mesh" : 0,
            "name" : "Floor"
        }
    ],
    "materials" : [
        {
            "doubleSided" : true,
            "name" : "noname1150",
            "pbrMetallicRoughness" : {
                "metallicFactor" : 0
            }
        }
    ],
    "meshes" : [
        {
            "name" : "BOS-MMTLX-GIJXK-4E2RN.002",
            "primitives" : [
                {
                    "attributes" : {
                        "POSITION" : 0,
                        "NORMAL" : 1
                    },
                    "indices" : 2,
                    "material" : 0
                }
            ]
        }
    ],
    "accessors" : [
        {
            "bufferView" : 0,
            "componentType" : 5126,
            "count" : 8010,
            "max" : [
                17.30154037475586,
                6.815311908721924,
                11.391298294067383
            ],
            "min" : [
                -15.62643814086914,
                0,
                -17.616453170776367
            ],
            "type" : "VEC3"
        },
        {
            "bufferView" : 1,
            "componentType" : 5126,
            "count" : 8010,
            "type" : "VEC3"
        },
        {
            "bufferView" : 2,
            "componentType" : 5123,
            "count" : 12069,
            "type" : "SCALAR"
        }
    ],
    "bufferViews" : [
        {
            "buffer" : 0,
            "byteLength" : 96120,
            "byteOffset" : 0
        },
        {
            "buffer" : 0,
            "byteLength" : 96120,
            "byteOffset" : 96120
        },
        {
            "buffer" : 0,
            "byteLength" : 24138,
            "byteOffset" : 192240
        }
    ],
    "buffers" : [
        {
            "byteLength" : 216380,
            "uri" : "data:application/octet-stream;base64,"
        }
    ]
}
