{
    "asset" : {
        "generator" : "Khronos glTF Blender I/O v1.6.16",
        "version" : "2.0"
    },
    "scene" : 0,
    "scenes" : [
        {
            "name" : "Scene",
            "nodes" : [
                0
            ]
        }
    ],
    "nodes" : [
        {
            "mesh" : 0,
            "name" : "Floor"
        }
    ],
    "materials" : [
        {
            "doubleSided" : true,
            "name" : "samia",
            "pbrMetallicRoughness" : {
                "metallicFactor" : 0
            }
        }
    ],
    "meshes" : [
        {
            "name" : "BOS-MMTLX-GIJXK-4E2RN.005",
            "primitives" : [
                {
                    "attributes" : {
                        "POSITION" : 0,
                        "NORMAL" : 1,
                        "TEXCOORD_0" : 2
                    },
                    "indices" : 3,
                    "material" : 0
                }
            ]
        }
    ],
    "accessors" : [
        {
            "bufferView" : 0,
            "componentType" : 5126,
            "count" : 524,
            "max" : [
                18.035823822021484,
                5.9000701904296875,
                12.530306816101074
            ],
            "min" : [
                -15.627747535705566,
                2.2527990495291306e-06,
                -18.37872886657715
            ],
            "type" : "VEC3"
        },
        {
            "bufferView" : 1,
            "componentType" : 5126,
            "count" : 524,
            "type" : "VEC3"
        },
        {
            "bufferView" : 2,
            "componentType" : 5126,
            "count" : 524,
            "type" : "VEC2"
        },
        {
            "bufferView" : 3,
            "componentType" : 5123,
            "count" : 528,
            "type" : "SCALAR"
        }
    ],
    "bufferViews" : [
        {
            "buffer" : 0,
            "byteLength" : 6288,
            "byteOffset" : 0
        },
        {
            "buffer" : 0,
            "byteLength" : 6288,
            "byteOffset" : 6288
        },
        {
            "buffer" : 0,
            "byteLength" : 4192,
            "byteOffset" : 12576
        },
        {
            "buffer" : 0,
            "byteLength" : 1056,
            "byteOffset" : 16768
        }
    ],
    "buffers" : [
        {
            "byteLength" : 17824,
            "uri" : "data:application/octet-stream;base64,"
        }
    ]
}
