{
    "asset" : {
        "generator" : "Khronos glTF Blender I/O v1.6.16",
        "version" : "2.0"
    },
    "scene" : 0,
    "scenes" : [
        {
            "name" : "Scene",
            "nodes" : [
                0
            ]
        }
    ],
    "nodes" : [
        {
            "mesh" : 0,
            "name" : "Floor",
            "translation" : [
                0,
                -3.814697265625e-06,
                0
            ]
        }
    ],
    "materials" : [
        {
            "doubleSided" : true,
            "name" : "noname25934.001",
            "pbrMetallicRoughness" : {
                "metallicFactor" : 0
            }
        }
    ],
    "meshes" : [
        {
            "name" : "BOS-D6RM2-L3IKL-5FUA4.001",
            "primitives" : [
                {
                    "attributes" : {
                        "POSITION" : 0,
                        "NORMAL" : 1
                    },
                    "indices" : 2,
                    "material" : 0
                }
            ]
        }
    ],
    "accessors" : [
        {
            "bufferView" : 0,
            "componentType" : 5126,
            "count" : 116,
            "max" : [
                21.176733016967773,
                3.072704792022705,
                15.82837200164795
            ],
            "min" : [
                -23.563968658447266,
                8.246427114499966e-07,
                -22.9099063873291
            ],
            "type" : "VEC3"
        },
        {
            "bufferView" : 1,
            "componentType" : 5126,
            "count" : 116,
            "type" : "VEC3"
        },
        {
            "bufferView" : 2,
            "componentType" : 5123,
            "count" : 174,
            "type" : "SCALAR"
        }
    ],
    "bufferViews" : [
        {
            "buffer" : 0,
            "byteLength" : 1392,
            "byteOffset" : 0
        },
        {
            "buffer" : 0,
            "byteLength" : 1392,
            "byteOffset" : 1392
        },
        {
            "buffer" : 0,
            "byteLength" : 348,
            "byteOffset" : 2784
        }
    ],
    "buffers" : [
        {
            "byteLength" : 3132,
            "uri" : "data:application/octet-stream;base64,"
        }
    ]
}
