{
    "asset" : {
        "generator" : "Khronos glTF Blender I/O v1.6.16",
        "version" : "2.0"
    },
    "scene" : 0,
    "scenes" : [
        {
            "name" : "Scene",
            "nodes" : [
                0
            ]
        }
    ],
    "nodes" : [
        {
            "mesh" : 0,
            "name" : "Floor",
            "translation" : [
                0,
                -3.814697265625e-06,
                0
            ]
        }
    ],
    "materials" : [
        {
            "doubleSided" : true,
            "name" : "noname25792",
            "pbrMetallicRoughness" : {
                "metallicFactor" : 0
            }
        }
    ],
    "meshes" : [
        {
            "name" : "BOS-3YCZI-NSOX9-PPCSZ.002",
            "primitives" : [
                {
                    "attributes" : {
                        "POSITION" : 0,
                        "NORMAL" : 1
                    },
                    "indices" : 2,
                    "material" : 0
                }
            ]
        }
    ],
    "accessors" : [
        {
            "bufferView" : 0,
            "componentType" : 5126,
            "count" : 2974,
            "max" : [
                28.59568214416504,
                4.845068454742432,
                39.271568298339844
            ],
            "min" : [
                -46.85164260864258,
                -4.5972301450092345e-06,
                -48.01667404174805
            ],
            "type" : "VEC3"
        },
        {
            "bufferView" : 1,
            "componentType" : 5126,
            "count" : 2974,
            "type" : "VEC3"
        },
        {
            "bufferView" : 2,
            "componentType" : 5123,
            "count" : 4572,
            "type" : "SCALAR"
        }
    ],
    "bufferViews" : [
        {
            "buffer" : 0,
            "byteLength" : 35688,
            "byteOffset" : 0
        },
        {
            "buffer" : 0,
            "byteLength" : 35688,
            "byteOffset" : 35688
        },
        {
            "buffer" : 0,
            "byteLength" : 9144,
            "byteOffset" : 71376
        }
    ],
    "buffers" : [
        {
            "byteLength" : 80520,
            "uri" : "data:application/octet-stream;base64,"
        }
    ]
}
