{
    "asset" : {
        "generator" : "Khronos glTF Blender I/O v1.6.16",
        "version" : "2.0"
    },
    "scene" : 0,
    "scenes" : [
        {
            "name" : "Scene",
            "nodes" : [
                0
            ]
        }
    ],
    "nodes" : [
        {
            "mesh" : 0,
            "name" : "Floor"
        }
    ],
    "materials" : [
        {
            "doubleSided" : true,
            "name" : "sargent",
            "pbrMetallicRoughness" : {
                "metallicFactor" : 0
            }
        }
    ],
    "meshes" : [
        {
            "name" : "BOS-3YCZI-NSOX9-PPCSZ.002",
            "primitives" : [
                {
                    "attributes" : {
                        "POSITION" : 0,
                        "NORMAL" : 1,
                        "TEXCOORD_0" : 2
                    },
                    "indices" : 3,
                    "material" : 0
                }
            ]
        }
    ],
    "accessors" : [
        {
            "bufferView" : 0,
            "componentType" : 5126,
            "count" : 3000,
            "max" : [
                28.59568214416504,
                4.845068454742432,
                39.271568298339844
            ],
            "min" : [
                -46.85164260864258,
                -4.5972301450092345e-06,
                -48.01667404174805
            ],
            "type" : "VEC3"
        },
        {
            "bufferView" : 1,
            "componentType" : 5126,
            "count" : 3000,
            "type" : "VEC3"
        },
        {
            "bufferView" : 2,
            "componentType" : 5126,
            "count" : 3000,
            "type" : "VEC2"
        },
        {
            "bufferView" : 3,
            "componentType" : 5123,
            "count" : 4572,
            "type" : "SCALAR"
        }
    ],
    "bufferViews" : [
        {
            "buffer" : 0,
            "byteLength" : 36000,
            "byteOffset" : 0
        },
        {
            "buffer" : 0,
            "byteLength" : 36000,
            "byteOffset" : 36000
        },
        {
            "buffer" : 0,
            "byteLength" : 24000,
            "byteOffset" : 72000
        },
        {
            "buffer" : 0,
            "byteLength" : 9144,
            "byteOffset" : 96000
        }
    ],
    "buffers" : [
        {
            "byteLength" : 105144,
            "uri" : "data:application/octet-stream;base64,"
        }
    ]
}
