{
    "asset" : {
        "generator" : "Khronos glTF Blender I/O v1.6.16",
        "version" : "2.0"
    },
    "scene" : 0,
    "scenes" : [
        {
            "name" : "Scene",
            "nodes" : [
                0
            ]
        }
    ],
    "nodes" : [
        {
            "mesh" : 0,
            "name" : "Floor"
        }
    ],
    "materials" : [
        {
            "doubleSided" : true,
            "name" : "sargent",
            "pbrMetallicRoughness" : {
                "metallicFactor" : 0
            }
        }
    ],
    "meshes" : [
        {
            "name" : "BOS-3YCZI-NSOX9-PPCSZ.004",
            "primitives" : [
                {
                    "attributes" : {
                        "POSITION" : 0,
                        "NORMAL" : 1,
                        "TEXCOORD_0" : 2,
                        "TEXCOORD_1" : 3
                    },
                    "indices" : 4,
                    "material" : 0
                }
            ]
        }
    ],
    "accessors" : [
        {
            "bufferView" : 0,
            "componentType" : 5126,
            "count" : 2799,
            "max" : [
                28.990093231201172,
                8.403524398803711,
                39.66399383544922
            ],
            "min" : [
                -47.246665954589844,
                -7.335855116252787e-06,
                -48.409629821777344
            ],
            "type" : "VEC3"
        },
        {
            "bufferView" : 1,
            "componentType" : 5126,
            "count" : 2799,
            "type" : "VEC3"
        },
        {
            "bufferView" : 2,
            "componentType" : 5126,
            "count" : 2799,
            "type" : "VEC2"
        },
        {
            "bufferView" : 3,
            "componentType" : 5126,
            "count" : 2799,
            "type" : "VEC2"
        },
        {
            "bufferView" : 4,
            "componentType" : 5123,
            "count" : 4443,
            "type" : "SCALAR"
        }
    ],
    "bufferViews" : [
        {
            "buffer" : 0,
            "byteLength" : 33588,
            "byteOffset" : 0
        },
        {
            "buffer" : 0,
            "byteLength" : 33588,
            "byteOffset" : 33588
        },
        {
            "buffer" : 0,
            "byteLength" : 22392,
            "byteOffset" : 67176
        },
        {
            "buffer" : 0,
            "byteLength" : 22392,
            "byteOffset" : 89568
        },
        {
            "buffer" : 0,
            "byteLength" : 8886,
            "byteOffset" : 111960
        }
    ],
    "buffers" : [
        {
            "byteLength" : 120848,
            "uri" : "data:application/octet-stream;base64,"
        }
    ]
}
