{
    "asset" : {
        "generator" : "Khronos glTF Blender I/O v1.6.16",
        "version" : "2.0"
    },
    "scene" : 0,
    "scenes" : [
        {
            "name" : "Scene",
            "nodes" : [
                0
            ]
        }
    ],
    "nodes" : [
        {
            "mesh" : 0,
            "name" : "Floor"
        }
    ],
    "materials" : [
        {
            "doubleSided" : true,
            "name" : "stahl",
            "pbrMetallicRoughness" : {
                "metallicFactor" : 0
            }
        }
    ],
    "meshes" : [
        {
            "name" : "BOS-60MUM-6NVYC-D0CWY.005",
            "primitives" : [
                {
                    "attributes" : {
                        "POSITION" : 0,
                        "NORMAL" : 1,
                        "TEXCOORD_0" : 2,
                        "TEXCOORD_1" : 3
                    },
                    "indices" : 4,
                    "material" : 0
                }
            ]
        }
    ],
    "accessors" : [
        {
            "bufferView" : 0,
            "componentType" : 5126,
            "count" : 3002,
            "max" : [
                40.310977935791016,
                4.02971076965332,
                42.72440719604492
            ],
            "min" : [
                -28.48928451538086,
                7.079461283865385e-06,
                -29.358409881591797
            ],
            "type" : "VEC3"
        },
        {
            "bufferView" : 1,
            "componentType" : 5126,
            "count" : 3002,
            "type" : "VEC3"
        },
        {
            "bufferView" : 2,
            "componentType" : 5126,
            "count" : 3002,
            "type" : "VEC2"
        },
        {
            "bufferView" : 3,
            "componentType" : 5126,
            "count" : 3002,
            "type" : "VEC2"
        },
        {
            "bufferView" : 4,
            "componentType" : 5123,
            "count" : 4842,
            "type" : "SCALAR"
        }
    ],
    "bufferViews" : [
        {
            "buffer" : 0,
            "byteLength" : 36024,
            "byteOffset" : 0
        },
        {
            "buffer" : 0,
            "byteLength" : 36024,
            "byteOffset" : 36024
        },
        {
            "buffer" : 0,
            "byteLength" : 24016,
            "byteOffset" : 72048
        },
        {
            "buffer" : 0,
            "byteLength" : 24016,
            "byteOffset" : 96064
        },
        {
            "buffer" : 0,
            "byteLength" : 9684,
            "byteOffset" : 120080
        }
    ],
    "buffers" : [
        {
            "byteLength" : 129764,
            "uri" : "data:application/octet-stream;base64,"
        }
    ]
}
