{
    "asset" : {
        "generator" : "Khronos glTF Blender I/O v1.6.16",
        "version" : "2.0"
    },
    "scene" : 0,
    "scenes" : [
        {
            "name" : "Scene",
            "nodes" : [
                0
            ]
        }
    ],
    "nodes" : [
        {
            "mesh" : 0,
            "name" : "Floor"
        }
    ],
    "materials" : [
        {
            "doubleSided" : true,
            "name" : "stahl",
            "pbrMetallicRoughness" : {
                "metallicFactor" : 0
            }
        }
    ],
    "meshes" : [
        {
            "name" : "BOS-60MUM-6NVYC-D0CWY",
            "primitives" : [
                {
                    "attributes" : {
                        "POSITION" : 0,
                        "NORMAL" : 1,
                        "TEXCOORD_0" : 2,
                        "TEXCOORD_1" : 3
                    },
                    "indices" : 4,
                    "material" : 0
                }
            ]
        }
    ],
    "accessors" : [
        {
            "bufferView" : 0,
            "componentType" : 5126,
            "count" : 8917,
            "max" : [
                41.29642105102539,
                15.544334411621094,
                43.70967102050781
            ],
            "min" : [
                -29.565853118896484,
                -0.0001103267859434709,
                -30.440839767456055
            ],
            "type" : "VEC3"
        },
        {
            "bufferView" : 1,
            "componentType" : 5126,
            "count" : 8917,
            "type" : "VEC3"
        },
        {
            "bufferView" : 2,
            "componentType" : 5126,
            "count" : 8917,
            "type" : "VEC2"
        },
        {
            "bufferView" : 3,
            "componentType" : 5126,
            "count" : 8917,
            "type" : "VEC2"
        },
        {
            "bufferView" : 4,
            "componentType" : 5123,
            "count" : 13665,
            "type" : "SCALAR"
        }
    ],
    "bufferViews" : [
        {
            "buffer" : 0,
            "byteLength" : 107004,
            "byteOffset" : 0
        },
        {
            "buffer" : 0,
            "byteLength" : 107004,
            "byteOffset" : 107004
        },
        {
            "buffer" : 0,
            "byteLength" : 71336,
            "byteOffset" : 214008
        },
        {
            "buffer" : 0,
            "byteLength" : 71336,
            "byteOffset" : 285344
        },
        {
            "buffer" : 0,
            "byteLength" : 27330,
            "byteOffset" : 356680
        }
    ],
    "buffers" : [
        {
            "byteLength" : 384012,
            "uri" : "data:application/octet-stream;base64,"
        }
    ]
}
